<svg width="14" height="12" viewBox="0 0 14 12" fill="none" xmlns="http://www.w3.org/2000/svg">
<path d="M1.167 2.60414e-06C0.523 2.60414e-06 3.26435e-08 0.523003 3.26435e-08 1.167V4.171C-7.00168e-05 4.73086 0.112599 5.28501 0.33129 5.80039C0.549981 6.31577 0.870214 6.78184 1.2729 7.17081C1.67558 7.55977 2.15246 7.86366 2.67511 8.06437C3.19776 8.26507 3.75548 8.35847 4.315 8.339C4.10584 7.74847 3.9993 7.12649 4 6.5C4 5.956 4.08 5.43 4.226 4.933L3.146 3.853C3.09824 3.80688 3.06015 3.75171 3.03395 3.69071C3.00774 3.6297 2.99395 3.56409 2.99337 3.4977C2.9928 3.43131 3.00545 3.36547 3.03059 3.30403C3.05573 3.24258 3.09286 3.18675 3.1398 3.13981C3.18675 3.09286 3.24257 3.05573 3.30402 3.03059C3.36547 3.00545 3.43131 2.9928 3.4977 2.99338C3.56409 2.99395 3.6297 3.00775 3.6907 3.03395C3.7517 3.06016 3.80688 3.09825 3.853 3.146L4.637 3.929C5.22533 2.819 6.17456 1.94279 7.328 1.445C6.93686 0.991026 6.45229 0.626888 5.90742 0.377493C5.36254 0.128098 4.77023 -0.000667769 4.171 2.60414e-06H1.167ZM5.984 9.31L4.201 11.094C4.10725 11.1879 4.05463 11.3152 4.05472 11.4479C4.05482 11.5805 4.10761 11.7077 4.2015 11.8015C4.29539 11.8953 4.42267 11.9479 4.55535 11.9478C4.68804 11.9477 4.81525 11.8949 4.909 11.801L6.692 10.016C7.35408 10.5447 8.15197 10.8757 8.99387 10.971C9.83577 11.0663 10.6875 10.922 11.451 10.5547C12.2145 10.1873 12.8588 9.61192 13.3097 8.89462C13.7606 8.17732 13.9999 7.34728 14 6.5V3.227C14 2.55 13.45 2 12.773 2H9.5C8.65237 1.99978 7.82192 2.23896 7.10426 2.69C6.3866 3.14104 5.81092 3.7856 5.44352 4.54947C5.07611 5.31333 4.93192 6.16543 5.02754 7.00764C5.12316 7.84986 5.4547 8.64795 5.984 9.31ZM9.857 6.849L7.403 9.303C7.13482 9.10187 6.89675 8.86346 6.696 8.595L9.15 6.142C9.19612 6.09425 9.2513 6.05616 9.3123 6.02995C9.3733 6.00375 9.43891 5.98995 9.5053 5.98938C9.57169 5.9888 9.63753 6.00145 9.69898 6.02659C9.76043 6.05173 9.81625 6.08886 9.8632 6.1358C9.91014 6.18275 9.94727 6.23858 9.97241 6.30003C9.99755 6.36147 10.0102 6.42731 10.0096 6.4937C10.009 6.56009 9.99525 6.6257 9.96905 6.6867C9.94285 6.74771 9.90476 6.80288 9.857 6.849Z" fill="#F7FFF5"/>
</svg>
