<svg width="15" height="15" viewBox="0 0 15 15" fill="none" xmlns="http://www.w3.org/2000/svg">
<path d="M6.2 10.425L8.15 11.075C8.15 11.075 13.025 10.1 13.675 10.1C14.325 10.1 14.325 10.75 13.675 11.4C13.025 12.05 10.75 14 8.8 14C6.85 14 5.55 13.025 4.25 13.025H1" stroke="#F7FFF5" stroke-linecap="round" stroke-linejoin="round"/>
<path d="M1 9.125C1.65 8.475 2.95 7.5 4.25 7.5C5.55 7.5 8.6375 8.8 9.125 9.45C9.6125 10.1 8.15 11.075 8.15 11.075" stroke="#F7FFF5" stroke-linecap="round" stroke-linejoin="round"/>
<path d="M10.75 7.825C11.2885 7.825 11.725 7.38848 11.725 6.85C11.725 6.31152 11.2885 5.875 10.75 5.875C10.2115 5.875 9.77502 6.31152 9.77502 6.85C9.77502 7.38848 10.2115 7.825 10.75 7.825Z" stroke="#F7FFF5"/>
<path d="M6.85 5.54998C7.38848 5.54998 7.825 5.11345 7.825 4.57498C7.825 4.0365 7.38848 3.59998 6.85 3.59998C6.31152 3.59998 5.875 4.0365 5.875 4.57498C5.875 5.11345 6.31152 5.54998 6.85 5.54998Z" stroke="#F7FFF5"/>
<path d="M10.75 2.95C11.2885 2.95 11.725 2.51348 11.725 1.975C11.725 1.43652 11.2885 1 10.75 1C10.2115 1 9.77502 1.43652 9.77502 1.975C9.77502 2.51348 10.2115 2.95 10.75 2.95Z" stroke="#F7FFF5"/>
</svg>
